<svg width="11" height="11" viewBox="0 0 11 11" fill="none" xmlns="http://www.w3.org/2000/svg">
<path d="M1.41704 5.923L1.42449 5.92935L5.5 9.40283L9.57551 5.92935L9.58296 5.923L9.59066 5.91694C10.2912 5.36572 10.5596 4.66756 10.489 4.01491C10.4177 3.3561 9.99109 2.66086 9.13496 2.15562C8.15584 1.5778 6.84146 1.27441 5.50011 1.27441C4.15878 1.27441 2.84432 1.57779 1.86504 2.15562L1.41704 5.923ZM1.41704 5.923L1.40934 5.91694M1.41704 5.923L1.40934 5.91694M1.40934 5.91694C0.708776 5.36572 0.44039 4.66756 0.510992 4.01491M1.40934 5.91694L0.510992 4.01491M0.510992 4.01491C0.58226 3.35611 1.0089 2.66087 1.86501 2.15564L0.510992 4.01491ZM3.23807 3.98852C3.23807 4.53313 3.60886 4.93667 4.01566 5.17674C4.43372 5.42346 4.97859 5.55992 5.55356 5.55992C6.12852 5.55992 6.67339 5.42346 7.09146 5.17674C7.49826 4.93667 7.86905 4.53313 7.86905 3.98852C7.86905 3.44391 7.49826 3.04037 7.09146 2.8003C6.67339 2.55358 6.12852 2.41712 5.55356 2.41712C4.97859 2.41712 4.43372 2.55358 4.01566 2.8003C3.60886 3.04037 3.23807 3.44391 3.23807 3.98852Z" stroke="white"/>
</svg>
