<svg width="150" height="120" viewBox="0 0 150 120" fill="none" xmlns="http://www.w3.org/2000/svg">
<path d="M96.686 60.5709L99.4835 69.0962C100.001 70.6676 101.424 71.4108 102.666 70.7579C103.91 70.1118 104.5 68.3123 103.985 66.7401L101.188 58.2175L96.686 60.5709Z" fill="#E3E3E3"/>
<path d="M98.5522 66.2536L103.053 63.9001L98.5522 66.2536Z" fill="#333333"/>
<path d="M90.7832 42.5767L97.149 45.905L90.7832 42.5767Z" fill="#333333"/>
<path d="M94.2472 25.2951C94.2472 29.8255 91.3396 33.4973 87.7545 33.4973C84.1657 33.4973 81.2573 29.8255 81.2573 25.2951C81.2573 20.7656 84.1657 17.0957 87.7545 17.0957C91.3389 17.0957 94.2472 20.7656 94.2472 25.2951Z" fill="#E3E3E3"/>
<path d="M90.9991 25.2951C90.9991 27.5617 89.5463 29.398 87.7538 29.398C85.959 29.398 84.5027 27.5617 84.5027 25.2951C84.5027 23.0304 85.959 21.1941 87.7538 21.1941C89.5463 21.1931 90.9991 23.0304 90.9991 25.2951Z" fill="#E3E3E3"/>
<path d="M83.1981 31.1414L74.3127 58.2185L72.0854 70.3695L73.5856 71.1542L78.8152 60.5719L80.0594 56.7847C79.0887 53.8238 80.2008 50.429 82.5455 49.2049L87.6977 33.4947C85.9453 33.4763 84.3599 32.5826 83.1981 31.1414Z" fill="#E3E3E3"/>
<path d="M92.306 31.1394C91.1435 32.5825 89.5566 33.4762 87.8042 33.4938L95.447 56.78L99.9466 54.4277L92.306 31.1394Z" fill="#E3E3E3"/>
<path d="M90.1883 12.9939V3.76598C90.1874 2.06535 89.0935 0.689697 87.7525 0.689697C86.407 0.689697 85.3167 2.06349 85.3159 3.76598L85.3167 12.9939H90.1883Z" fill="#E3E3E3"/>
<path d="M87.7537 17.0957C88.1688 17.0957 88.5757 17.1483 88.9695 17.2426V12.9946H86.5344V17.2426C86.9298 17.1474 87.3345 17.0957 87.7537 17.0957Z" fill="#333333"/>
<path d="M53.9318 74.5471H45.8296V0.687744H53.9332C55.7236 0.687744 57.1741 2.52595 57.1741 4.79254V70.446H57.1734C57.1726 72.7127 55.7221 74.5471 53.9318 74.5471Z" fill="#E3E3E3"/>
<path d="M53.5277 6.844C54.1991 6.844 54.7434 6.15494 54.7434 5.30493C54.7434 4.45493 54.1991 3.76587 53.5277 3.76587C52.8563 3.76587 52.312 4.45493 52.312 5.30493C52.312 6.15494 52.8563 6.844 53.5277 6.844Z" fill="#333333"/>
<path d="M62.8457 44.2893C62.8457 45.136 63.3905 45.8274 64.0613 45.8274C64.733 45.8274 65.2771 45.136 65.2771 44.2893C65.2771 45.136 65.8226 45.8274 66.4928 45.8274C67.1644 45.8274 67.7084 45.136 67.7084 44.2893C67.7084 45.136 67.1644 45.8274 66.4928 45.8274C65.8226 45.8274 65.2771 45.136 65.2771 44.2893C65.2771 45.136 64.733 45.8274 64.0613 45.8274C63.3905 45.8274 62.8457 45.136 62.8457 44.2893Z" fill="#333333"/>
<path d="M64.4669 0.687744C63.5727 0.687744 62.8457 1.60823 62.8457 2.74198V2.74105V45.8265L65.2763 58.1362L67.7077 45.8265V2.74014V2.74105C67.7077 1.60915 66.9814 0.688667 66.0866 0.688667L64.4669 0.687744Z" fill="#E3E3E3"/>
<path d="M32.6892 92.7109H33.8142C33.7556 93.25 33.6013 93.7324 33.3513 94.1582C33.1013 94.584 32.7478 94.9219 32.2908 95.1719C31.8337 95.418 31.2634 95.541 30.5798 95.541C30.0798 95.541 29.6248 95.4473 29.2146 95.2598C28.8083 95.0723 28.4587 94.8066 28.1658 94.4629C27.8728 94.1152 27.6462 93.6992 27.4861 93.2148C27.3298 92.7266 27.2517 92.1836 27.2517 91.5859V90.7363C27.2517 90.1387 27.3298 89.5977 27.4861 89.1133C27.6462 88.625 27.8748 88.207 28.1716 87.8594C28.4724 87.5117 28.8337 87.2441 29.2556 87.0566C29.6775 86.8691 30.1521 86.7754 30.6794 86.7754C31.324 86.7754 31.8689 86.8965 32.3142 87.1387C32.7595 87.3809 33.1052 87.7168 33.3513 88.1465C33.6013 88.5723 33.7556 89.0664 33.8142 89.6289H32.6892C32.6345 89.2305 32.533 88.8887 32.3845 88.6035C32.2361 88.3145 32.0251 88.0918 31.7517 87.9355C31.4783 87.7793 31.1208 87.7012 30.6794 87.7012C30.3005 87.7012 29.9666 87.7734 29.6775 87.918C29.3923 88.0625 29.1521 88.2676 28.9568 88.5332C28.7654 88.7988 28.6208 89.1172 28.5232 89.4883C28.4255 89.8594 28.3767 90.2715 28.3767 90.7246V91.5859C28.3767 92.0039 28.4197 92.3965 28.5056 92.7637C28.5955 93.1309 28.7302 93.4531 28.9099 93.7305C29.0896 94.0078 29.3181 94.2266 29.5955 94.3867C29.8728 94.543 30.2009 94.6211 30.5798 94.6211C31.0603 94.6211 31.4431 94.5449 31.7283 94.3926C32.0134 94.2402 32.2283 94.0215 32.3728 93.7363C32.5212 93.4512 32.6267 93.1094 32.6892 92.7109ZM43.3275 90.5605V91.4805H38.7103V90.5605H43.3275ZM38.8861 86.8926V95.4238H37.7552V86.8926H38.8861ZM44.3119 86.8926V95.4238H43.1869V86.8926H44.3119ZM51.9853 87.6484L49.1611 95.4238H48.0068L51.2587 86.8926H52.0029L51.9853 87.6484ZM54.3525 95.4238L51.5224 87.6484L51.5048 86.8926H52.249L55.5126 95.4238H54.3525ZM54.206 92.2656V93.1914H49.413V92.2656H54.206ZM61.4459 86.8926V95.4238H60.3326V86.8926H61.4459ZM64.188 86.8926V87.8184H57.5962V86.8926H64.188ZM76.0369 91.4336H73.8748L73.863 90.5254H75.8259C76.1501 90.5254 76.4333 90.4707 76.6755 90.3613C76.9177 90.252 77.1052 90.0957 77.238 89.8926C77.3748 89.6855 77.4431 89.4395 77.4431 89.1543C77.4431 88.8418 77.3826 88.5879 77.2615 88.3926C77.1443 88.1934 76.9626 88.0488 76.7166 87.959C76.4744 87.8652 76.1658 87.8184 75.7908 87.8184H74.1267V95.4238H72.9958V86.8926H75.7908C76.2283 86.8926 76.6189 86.9375 76.9626 87.0273C77.3064 87.1133 77.5974 87.25 77.8357 87.4375C78.0779 87.6211 78.2615 87.8555 78.3865 88.1406C78.5115 88.4258 78.574 88.7676 78.574 89.166C78.574 89.5176 78.4841 89.8359 78.3044 90.1211C78.1248 90.4023 77.8748 90.6328 77.5544 90.8125C77.238 90.9922 76.8669 91.1074 76.4412 91.1582L76.0369 91.4336ZM75.9841 95.4238H73.4294L74.0681 94.5039H75.9841C76.3435 94.5039 76.6482 94.4414 76.8982 94.3164C77.1521 94.1914 77.3455 94.0156 77.4783 93.7891C77.6111 93.5586 77.6775 93.2871 77.6775 92.9746C77.6775 92.6582 77.6208 92.3848 77.5076 92.1543C77.3943 91.9238 77.2166 91.7461 76.9744 91.6211C76.7322 91.4961 76.4197 91.4336 76.0369 91.4336H74.4255L74.4373 90.5254H76.6404L76.8806 90.8535C77.2908 90.8887 77.6384 91.0059 77.9236 91.2051C78.2087 91.4004 78.4255 91.6504 78.574 91.9551C78.7263 92.2598 78.8025 92.5957 78.8025 92.9629C78.8025 93.4941 78.6853 93.9434 78.4509 94.3105C78.2205 94.6738 77.8943 94.9512 77.4724 95.1426C77.0505 95.3301 76.5544 95.4238 75.9841 95.4238ZM89.4408 90.8887V91.4277C89.4408 92.0684 89.3607 92.6426 89.2005 93.1504C89.0404 93.6582 88.8099 94.0898 88.5091 94.4453C88.2084 94.8008 87.847 95.0723 87.4251 95.2598C87.0072 95.4473 86.5384 95.541 86.0189 95.541C85.515 95.541 85.0521 95.4473 84.6302 95.2598C84.2123 95.0723 83.849 94.8008 83.5404 94.4453C83.2357 94.0898 82.9994 93.6582 82.8314 93.1504C82.6634 92.6426 82.5794 92.0684 82.5794 91.4277V90.8887C82.5794 90.248 82.6615 89.6758 82.8255 89.1719C82.9935 88.6641 83.2298 88.2324 83.5345 87.877C83.8392 87.5176 84.2005 87.2441 84.6185 87.0566C85.0404 86.8691 85.5033 86.7754 86.0072 86.7754C86.5267 86.7754 86.9955 86.8691 87.4134 87.0566C87.8353 87.2441 88.1966 87.5176 88.4974 87.877C88.8021 88.2324 89.0345 88.6641 89.1947 89.1719C89.3587 89.6758 89.4408 90.248 89.4408 90.8887ZM88.3216 91.4277V90.877C88.3216 90.3691 88.2689 89.9199 88.1634 89.5293C88.0619 89.1387 87.9115 88.8105 87.7123 88.5449C87.513 88.2793 87.2689 88.0781 86.9798 87.9414C86.6947 87.8047 86.3705 87.7363 86.0072 87.7363C85.6556 87.7363 85.3373 87.8047 85.0521 87.9414C84.7709 88.0781 84.5287 88.2793 84.3255 88.5449C84.1263 88.8105 83.972 89.1387 83.8626 89.5293C83.7533 89.9199 83.6986 90.3691 83.6986 90.877V91.4277C83.6986 91.9395 83.7533 92.3926 83.8626 92.7871C83.972 93.1777 84.1283 93.5078 84.3314 93.7773C84.5384 94.043 84.7826 94.2441 85.0638 94.3809C85.349 94.5176 85.6673 94.5859 86.0189 94.5859C86.3861 94.5859 86.7123 94.5176 86.9974 94.3809C87.2826 94.2441 87.5228 94.043 87.7181 93.7773C87.9173 93.5078 88.0677 93.1777 88.1693 92.7871C88.2709 92.3926 88.3216 91.9395 88.3216 91.4277ZM96.5224 86.8926V95.4238H95.4091V86.8926H96.5224ZM99.2646 86.8926V87.8184H92.6728V86.8926H99.2646Z" fill="#FFF3F3"/>
</svg>
