<svg width="128" height="47" viewBox="0 0 128 47" fill="none" xmlns="http://www.w3.org/2000/svg">
<path d="M82.5054 23.7236L84.8926 27.0627C85.3338 27.6781 86.5486 27.9692 87.6083 27.7135C88.67 27.4605 89.1734 26.7557 88.7335 26.1399L86.3469 22.8019L82.5054 23.7236Z" fill="#333333"/>
<path d="M84.0979 25.9494L87.9387 25.0276L84.0979 25.9494Z" fill="#333333"/>
<path d="M77.4683 16.6759L82.9004 17.9795L77.4683 16.6759Z" fill="#333333"/>
<path d="M80.4243 9.90724C80.4243 11.6816 77.9431 13.1198 74.8839 13.1198C71.8214 13.1198 69.3396 11.6816 69.3396 9.90724C69.3396 8.13318 71.8214 6.6958 74.8839 6.6958C77.9425 6.6958 80.4243 8.13318 80.4243 9.90724Z" fill="#333333"/>
<path d="M77.6525 9.90725C77.6525 10.795 76.4128 11.5142 74.8831 11.5142C73.3516 11.5142 72.1089 10.795 72.1089 9.90725C72.1089 9.02025 73.3516 8.30103 74.8831 8.30103C76.4128 8.30062 77.6525 9.02025 77.6525 9.90725Z" fill="#333333"/>
<path d="M70.9957 12.197L63.4136 22.8022L61.5129 27.5614L62.7931 27.8687L67.2557 23.724L68.3174 22.2407C67.489 21.081 68.4381 19.7514 70.4388 19.2719L74.8354 13.1187C73.34 13.1115 71.9871 12.7615 70.9957 12.197Z" fill="#333333"/>
<path d="M78.7678 12.1963C77.7758 12.7615 76.4217 13.1115 74.9263 13.1184L81.4481 22.2388L85.2878 21.3175L78.7678 12.1963Z" fill="#333333"/>
<path d="M76.9607 5.08929V1.47502C76.96 0.80894 76.0265 0.270142 74.8822 0.270142C73.734 0.270142 72.8037 0.808212 72.803 1.47502L72.8037 5.08929H76.9607Z" fill="#333333"/>
<path d="M74.8833 6.69586C75.2374 6.69586 75.5846 6.71647 75.9207 6.75338V5.0896H73.8428V6.75338C74.1801 6.71611 74.5255 6.69586 74.8833 6.69586Z" fill="#333333"/>
<path d="M46.0218 29.1977H39.1079V0.269409H46.023C47.5508 0.269409 48.7885 0.989372 48.7885 1.87712V27.5914H48.788C48.7873 28.4792 47.5495 29.1977 46.0218 29.1977Z" fill="#333333"/>
<path d="M45.677 2.68058C46.2499 2.68058 46.7145 2.41069 46.7145 2.07778C46.7145 1.74486 46.2499 1.47498 45.677 1.47498C45.1041 1.47498 44.6396 1.74486 44.6396 2.07778C44.6396 2.41069 45.1041 2.68058 45.677 2.68058Z" fill="#333333"/>
<path d="M53.6282 17.3467C53.6282 17.6783 54.0931 17.9491 54.6655 17.9491C55.2387 17.9491 55.703 17.6783 55.703 17.3467C55.703 17.6783 56.1685 17.9491 56.7403 17.9491C57.3135 17.9491 57.7777 17.6783 57.7777 17.3467C57.7777 17.6783 57.3135 17.9491 56.7403 17.9491C56.1685 17.9491 55.703 17.6783 55.703 17.3467C55.703 17.6783 55.2387 17.9491 54.6655 17.9491C54.0931 17.9491 53.6282 17.6783 53.6282 17.3467Z" fill="#333333"/>
<path d="M55.0116 0.269409C54.2486 0.269409 53.6282 0.629932 53.6282 1.07399V1.07362V17.9488L55.7023 22.7701L57.7771 17.9488V1.07326V1.07362C57.7771 0.630294 57.1573 0.269771 56.3937 0.269771L55.0116 0.269409Z" fill="#333333"/>
<path d="M28.7954 40.7448H29.9204C29.8618 41.2838 29.7075 41.7662 29.4575 42.192C29.2075 42.6178 28.854 42.9557 28.397 43.2057C27.9399 43.4518 27.3696 43.5748 26.686 43.5748C26.186 43.5748 25.731 43.4811 25.3208 43.2936C24.9146 43.1061 24.5649 42.8405 24.272 42.4967C23.979 42.149 23.7524 41.733 23.5923 41.2487C23.436 40.7604 23.3579 40.2174 23.3579 39.6198V38.7701C23.3579 38.1725 23.436 37.6315 23.5923 37.1471C23.7524 36.6588 23.981 36.2408 24.2778 35.8932C24.5786 35.5455 24.9399 35.278 25.3618 35.0905C25.7837 34.903 26.2583 34.8092 26.7856 34.8092C27.4302 34.8092 27.9751 34.9303 28.4204 35.1725C28.8657 35.4147 29.2114 35.7506 29.4575 36.1803C29.7075 36.6061 29.8618 37.1002 29.9204 37.6627H28.7954C28.7407 37.2643 28.6392 36.9225 28.4907 36.6373C28.3423 36.3483 28.1313 36.1256 27.8579 35.9694C27.5845 35.8131 27.2271 35.735 26.7856 35.735C26.4067 35.735 26.0728 35.8073 25.7837 35.9518C25.4985 36.0963 25.2583 36.3014 25.063 36.567C24.8716 36.8326 24.7271 37.151 24.6294 37.5221C24.5317 37.8932 24.4829 38.3053 24.4829 38.7584V39.6198C24.4829 40.0377 24.5259 40.4303 24.6118 40.7975C24.7017 41.1647 24.8364 41.4869 25.0161 41.7643C25.1958 42.0416 25.4243 42.2604 25.7017 42.4205C25.979 42.5768 26.3071 42.6549 26.686 42.6549C27.1665 42.6549 27.5493 42.5787 27.8345 42.4264C28.1196 42.274 28.3345 42.0553 28.479 41.7701C28.6274 41.485 28.7329 41.1432 28.7954 40.7448ZM39.4337 38.5944V39.5143H34.8165V38.5944H39.4337ZM34.9923 34.9264V43.4576H33.8614V34.9264H34.9923ZM40.4181 34.9264V43.4576H39.2931V34.9264H40.4181ZM48.0915 35.6823L45.2673 43.4576H44.113L47.3649 34.9264H48.1091L48.0915 35.6823ZM50.4587 43.4576L47.6286 35.6823L47.611 34.9264H48.3552L51.6188 43.4576H50.4587ZM50.3122 40.2994V41.2252H45.5192V40.2994H50.3122ZM57.5521 34.9264V43.4576H56.4388V34.9264H57.5521ZM60.2942 34.9264V35.8522H53.7024V34.9264H60.2942ZM72.1431 39.4674H69.981L69.9692 38.5592H71.9321C72.2563 38.5592 72.5396 38.5045 72.7817 38.3951C73.0239 38.2858 73.2114 38.1295 73.3442 37.9264C73.481 37.7194 73.5493 37.4733 73.5493 37.1881C73.5493 36.8756 73.4888 36.6217 73.3677 36.4264C73.2505 36.2272 73.0688 36.0826 72.8228 35.9928C72.5806 35.899 72.272 35.8522 71.897 35.8522H70.2329V43.4576H69.1021V34.9264H71.897C72.3345 34.9264 72.7251 34.9713 73.0688 35.0612C73.4126 35.1471 73.7036 35.2838 73.9419 35.4713C74.1841 35.6549 74.3677 35.8893 74.4927 36.1744C74.6177 36.4596 74.6802 36.8014 74.6802 37.1998C74.6802 37.5514 74.5903 37.8698 74.4106 38.1549C74.231 38.4362 73.981 38.6666 73.6606 38.8463C73.3442 39.026 72.9731 39.1412 72.5474 39.192L72.1431 39.4674ZM72.0903 43.4576H69.5356L70.1743 42.5377H72.0903C72.4497 42.5377 72.7544 42.4752 73.0044 42.3502C73.2583 42.2252 73.4517 42.0494 73.5845 41.8229C73.7173 41.5924 73.7837 41.3209 73.7837 41.0084C73.7837 40.692 73.7271 40.4186 73.6138 40.1881C73.5005 39.9576 73.3228 39.7799 73.0806 39.6549C72.8384 39.5299 72.5259 39.4674 72.1431 39.4674H70.5317L70.5435 38.5592H72.7466L72.9868 38.8873C73.397 38.9225 73.7446 39.0397 74.0298 39.2389C74.3149 39.4342 74.5317 39.6842 74.6802 39.9889C74.8325 40.2936 74.9087 40.6295 74.9087 40.9967C74.9087 41.528 74.7915 41.9772 74.5571 42.3444C74.3267 42.7076 74.0005 42.985 73.5786 43.1764C73.1567 43.3639 72.6606 43.4576 72.0903 43.4576ZM85.547 38.9225V39.4615C85.547 40.1022 85.4669 40.6764 85.3067 41.1842C85.1466 41.692 84.9161 42.1237 84.6153 42.4791C84.3146 42.8346 83.9532 43.1061 83.5313 43.2936C83.1134 43.4811 82.6446 43.5748 82.1251 43.5748C81.6212 43.5748 81.1583 43.4811 80.7364 43.2936C80.3185 43.1061 79.9552 42.8346 79.6466 42.4791C79.3419 42.1237 79.1056 41.692 78.9376 41.1842C78.7696 40.6764 78.6856 40.1022 78.6856 39.4615V38.9225C78.6856 38.2819 78.7677 37.7096 78.9317 37.2057C79.0997 36.6979 79.336 36.2662 79.6407 35.9108C79.9454 35.5514 80.3067 35.278 80.7247 35.0905C81.1466 34.903 81.6095 34.8092 82.1134 34.8092C82.6329 34.8092 83.1017 34.903 83.5196 35.0905C83.9415 35.278 84.3028 35.5514 84.6036 35.9108C84.9083 36.2662 85.1407 36.6979 85.3009 37.2057C85.4649 37.7096 85.547 38.2819 85.547 38.9225ZM84.4278 39.4615V38.9108C84.4278 38.403 84.3751 37.9537 84.2696 37.5631C84.1681 37.1725 84.0177 36.8444 83.8185 36.5787C83.6192 36.3131 83.3751 36.1119 83.086 35.9752C82.8009 35.8385 82.4767 35.7701 82.1134 35.7701C81.7618 35.7701 81.4435 35.8385 81.1583 35.9752C80.8771 36.1119 80.6349 36.3131 80.4317 36.5787C80.2325 36.8444 80.0782 37.1725 79.9688 37.5631C79.8595 37.9537 79.8048 38.403 79.8048 38.9108V39.4615C79.8048 39.9733 79.8595 40.4264 79.9688 40.8209C80.0782 41.2115 80.2345 41.5416 80.4376 41.8112C80.6446 42.0768 80.8888 42.278 81.17 42.4147C81.4552 42.5514 81.7735 42.6198 82.1251 42.6198C82.4923 42.6198 82.8185 42.5514 83.1036 42.4147C83.3888 42.278 83.629 42.0768 83.8243 41.8112C84.0235 41.5416 84.1739 41.2115 84.2755 40.8209C84.3771 40.4264 84.4278 39.9733 84.4278 39.4615ZM92.6286 34.9264V43.4576H91.5153V34.9264H92.6286ZM95.3708 34.9264V35.8522H88.779V34.9264H95.3708Z" fill="black"/>
</svg>
