<svg width="16" height="7" viewBox="0 0 16 7" fill="none" xmlns="http://www.w3.org/2000/svg">
<path d="M8.21673 3.92606L8.21672 3.92604L8.21318 3.92744C8.1704 3.9443 8.10203 3.95848 8.0235 3.95848H8.02008C7.91718 3.95848 7.84555 3.93788 7.82043 3.92547L7.81978 3.92515L1.72893 0.930029H14.3076L8.53179 3.77362L8.53143 3.7738L8.24443 3.91547L8.2429 3.91603L8.24118 3.91669L8.21673 3.92606ZM11.4687 3.7318L15.6 1.69795V5.71246L11.4687 3.7318ZM10.0335 4.43799L14.3638 6.51372H1.62752L5.97211 4.42017L7.04609 4.94862L7.04712 4.94913C7.32991 5.08727 7.67647 5.15374 8.02235 5.15374C8.36762 5.15374 8.71443 5.08674 8.99759 4.94814L8.99844 4.94772L10.0335 4.43799ZM0.4 5.70966V1.67998L4.53848 3.71511L0.4 5.70966Z" stroke="white" stroke-width="0.8"/>
</svg>
