<svg width="17" height="10" viewBox="0 0 17 10" fill="none" xmlns="http://www.w3.org/2000/svg">
<path d="M13.2509 8.7221L13.2617 8.71584L15.2742 7.55679L12.2245 6.51139H12.2063L12.1264 6.48357C12.0885 6.47036 11.9992 6.45238 11.8333 6.45238C11.6336 6.45238 11.4809 6.48953 11.3618 6.5485L10.4096 7.11077L10.4063 7.1127L10.4063 7.11269C10.3082 7.16966 10.2028 7.19343 10.1403 7.20555L10.1401 7.20559C10.0876 7.21573 10.0097 7.22943 9.93496 7.22943H9.90601L9.87726 7.22609L9.66566 7.20151L9.66545 7.20149L9.72315 6.70483C9.58194 6.68848 9.37855 6.64094 9.11301 6.56225C8.84748 6.48356 8.51686 6.36056 8.12146 6.19341L13.2509 8.7221ZM13.2509 8.7221L13.2403 8.7289M13.2509 8.7221L13.2403 8.7289M13.2403 8.7289C13.1938 8.7589 13.1116 8.79751 12.9783 8.83483L12.9781 8.83488M13.2403 8.7289L12.9781 8.83488M12.9781 8.83488C12.8474 8.87151 12.7221 8.89462 12.6018 8.90544M12.9781 8.83488L12.6018 8.90544M7.3158 7.8161L7.31581 7.8161C8.18325 8.14523 8.95063 8.38891 9.61986 8.54992C10.3011 8.71382 10.8627 8.81307 11.3097 8.85277C11.7887 8.89529 12.1172 8.91476 12.308 8.91476L7.3158 7.8161ZM7.3158 7.8161C6.46572 7.49357 5.55328 7.04776 4.57798 6.47531L4.57799 6.47528M7.3158 7.8161L4.57799 6.47528M4.57799 6.47528L4.57315 6.47251M4.57799 6.47528L4.57315 6.47251M4.57315 6.47251C3.79672 6.02836 3.16407 5.6095 2.6699 5.21674L4.57315 6.47251ZM12.6018 8.90544C12.5724 8.90645 12.5347 8.90861 12.4994 8.91066L12.6018 8.90544ZM4.15487 3.81651C4.23057 4.04715 4.38207 4.26376 4.55924 4.46257L2.66988 5.21673C2.16377 4.81445 1.76803 4.45135 1.47585 4.12737L1.47584 4.12735C1.1746 3.79335 0.963516 3.50653 0.829916 3.26563C0.682136 2.99915 0.594908 2.79206 0.552907 2.63849C0.501643 2.45107 0.497929 2.35853 0.500549 2.33116L0.501025 2.3262C0.50563 2.27809 0.510291 2.22942 0.513813 2.18727C0.521024 2.17392 0.533964 2.15356 0.556705 2.12622C0.59219 2.08356 0.635729 2.04786 0.69193 2.0185L0.701794 2.01335L0.711419 2.00776L2.96565 0.699554C3.03931 0.656809 3.1317 0.629395 3.25706 0.629395C3.34825 0.629395 3.40819 0.644581 3.44734 0.661622C3.50804 0.688039 3.55199 0.715909 3.58404 0.742377L5.2842 2.61427L4.46372 3.09042C4.34559 3.15897 4.26957 3.25459 4.22179 3.33778C4.18903 3.39482 4.12994 3.51099 4.12994 3.66058V3.74054L4.15487 3.81651Z" stroke="white"/>
</svg>
